<svg width="48" height="48" viewBox="0 0 48 48" fill="none" xmlns="http://www.w3.org/2000/svg">
<path d="M24 32.3334C19.3975 32.3334 15.6667 28.6025 15.6667 24C15.6667 19.3975 19.3975 15.6667 24 15.6667C28.6025 15.6667 32.3334 19.3975 32.3334 24C32.3334 28.6025 28.6025 32.3334 24 32.3334ZM24 30.6667C25.7681 30.6667 27.4638 29.9643 28.7141 28.7141C29.9643 27.4638 30.6667 25.7681 30.6667 24C30.6667 22.2319 29.9643 20.5362 28.7141 19.286C27.4638 18.0357 25.7681 17.3334 24 17.3334C22.2319 17.3334 20.5362 18.0357 19.286 19.286C18.0357 20.5362 17.3334 22.2319 17.3334 24C17.3334 25.7681 18.0357 27.4638 19.286 28.7141C20.5362 29.9643 22.2319 30.6667 24 30.6667ZM24.8334 24H28.1667V25.6667H23.1667V19.8334H24.8334V24Z" fill="#081212"/>
</svg>
